<?xml version="1.0" encoding="UTF-8" standalone="no"?>
<!-- Created with Inkscape (http://www.inkscape.org/) -->

<svg
   version="1.1"
   id="svg2"
   width="666.66669"
   height="666.66669"
   viewBox="0 0 666.66669 666.66669"
   sodipodi:docname="5612428.ai"
   xmlns:inkscape="http://www.inkscape.org/namespaces/inkscape"
   xmlns:sodipodi="http://sodipodi.sourceforge.net/DTD/sodipodi-0.dtd"
   xmlns="http://www.w3.org/2000/svg"
   xmlns:svg="http://www.w3.org/2000/svg">
  <defs
     id="defs6">
    <clipPath
       clipPathUnits="userSpaceOnUse"
       id="clipPath18">
      <path
         d="M 0,500 H 500 V 0 H 0 Z"
         id="path16" />
    </clipPath>
    <clipPath
       clipPathUnits="userSpaceOnUse"
       id="clipPath26">
      <path
         d="M 162.138,201.594 H 352.915 V 190.745 H 162.138 Z"
         id="path24" />
    </clipPath>
    <radialGradient
       fx="0"
       fy="0"
       cx="0"
       cy="0"
       r="1"
       gradientUnits="userSpaceOnUse"
       gradientTransform="matrix(120.20774,-125.99551,-125.99551,-120.20774,172.36967,368.38013)"
       spreadMethod="pad"
       id="radialGradient64">
      <stop
         style="stop-opacity:1;stop-color:#fdef0c"
         offset="0"
         id="stop56" />
      <stop
         style="stop-opacity:1;stop-color:#fdef0c"
         offset="0.07812888"
         id="stop58" />
      <stop
         style="stop-opacity:1;stop-color:#ed6d05"
         offset="0.560525"
         id="stop60" />
      <stop
         style="stop-opacity:1;stop-color:#d25917"
         offset="1"
         id="stop62" />
    </radialGradient>
    <clipPath
       clipPathUnits="userSpaceOnUse"
       id="clipPath74">
      <path
         d="M 0,500 H 500 V 0 H 0 Z"
         id="path72" />
    </clipPath>
    <clipPath
       clipPathUnits="userSpaceOnUse"
       id="clipPath82">
      <path
         d="M 158.761,384.081 H 312.302 V 232.43 H 158.761 Z"
         id="path80" />
    </clipPath>
    <linearGradient
       x1="0"
       y1="0"
       x2="1"
       y2="0"
       gradientUnits="userSpaceOnUse"
       gradientTransform="matrix(172.68278,-139.10556,-139.10556,-172.68278,85.437622,430.42291)"
       spreadMethod="pad"
       id="linearGradient100">
      <stop
         style="stop-opacity:1;stop-color:#fcb138"
         offset="0"
         id="stop88" />
      <stop
         style="stop-opacity:1;stop-color:#fcb138"
         offset="0.17751066"
         id="stop90" />
      <stop
         style="stop-opacity:1;stop-color:#e30613"
         offset="0.552988"
         id="stop92" />
      <stop
         style="stop-opacity:1;stop-color:#d21317"
         offset="0.865167"
         id="stop94" />
      <stop
         style="stop-opacity:1;stop-color:#921212"
         offset="0.998935"
         id="stop96" />
      <stop
         style="stop-opacity:1;stop-color:#921212"
         offset="1"
         id="stop98" />
    </linearGradient>
    <linearGradient
       x1="0"
       y1="0"
       x2="1"
       y2="0"
       gradientUnits="userSpaceOnUse"
       gradientTransform="matrix(-103.01435,-12.920443,-12.920443,103.01435,316.56189,282.91452)"
       spreadMethod="pad"
       id="linearGradient154">
      <stop
         style="stop-opacity:1;stop-color:#641714"
         offset="0"
         id="stop148" />
      <stop
         style="stop-opacity:1;stop-color:#641714"
         offset="0.638754"
         id="stop150" />
      <stop
         style="stop-opacity:1;stop-color:#43220b"
         offset="1"
         id="stop152" />
    </linearGradient>
    <clipPath
       clipPathUnits="userSpaceOnUse"
       id="clipPath164">
      <path
         d="m 239.569,340.621 c -20.686,-6.367 -48.328,-29.346 -23.401,-61.153 v 0 c 11.857,-15.13 5.322,-20.556 4.443,-37.331 v 0 c -0.881,-16.776 5.487,-26.065 20.877,-30.481 v 0 c 15.391,-4.418 22.248,-5.696 30.22,-3.301 v 0 c 4.37,1.313 20.799,18.377 25.251,63.744 v 0 c 4.455,45.367 9.96,59.664 8.02,62.175 v 0 c -6.428,8.325 -18.361,11.781 -32.147,11.781 v 0 c -10.547,10e-4 -22.177,-2.021 -33.263,-5.434"
         id="path162" />
    </clipPath>
    <clipPath
       clipPathUnits="userSpaceOnUse"
       id="clipPath172">
      <path
         d="m 203.349,316.823 h 58.584 V 201.95 h -58.584 z"
         id="path170" />
    </clipPath>
    <clipPath
       clipPathUnits="userSpaceOnUse"
       id="clipPath188">
      <path
         d="M 0,500 H 500 V 0 H 0 Z"
         id="path186" />
    </clipPath>
    <clipPath
       clipPathUnits="userSpaceOnUse"
       id="clipPath196">
      <path
         d="m 209.178,338.639 h 34.296 v -54.651 h -34.296 z"
         id="path194" />
    </clipPath>
    <clipPath
       clipPathUnits="userSpaceOnUse"
       id="clipPath236">
      <path
         d="m 233.358,323.741 h 17.988 v -17.558 h -17.988 z"
         id="path234" />
    </clipPath>
    <radialGradient
       fx="0"
       fy="0"
       cx="0"
       cy="0"
       r="1"
       gradientUnits="userSpaceOnUse"
       gradientTransform="matrix(94.37117,-92.28331,-92.28331,-94.37117,151.67595,379.42236)"
       spreadMethod="pad"
       id="radialGradient282">
      <stop
         style="stop-opacity:1;stop-color:#fcb138"
         offset="0"
         id="stop270" />
      <stop
         style="stop-opacity:1;stop-color:#fcb138"
         offset="0.17751066"
         id="stop272" />
      <stop
         style="stop-opacity:1;stop-color:#e30613"
         offset="0.552988"
         id="stop274" />
      <stop
         style="stop-opacity:1;stop-color:#cb1819"
         offset="0.834873"
         id="stop276" />
      <stop
         style="stop-opacity:1;stop-color:#76181a"
         offset="0.984319"
         id="stop278" />
      <stop
         style="stop-opacity:1;stop-color:#76181a"
         offset="1"
         id="stop280" />
    </radialGradient>
    <radialGradient
       fx="0"
       fy="0"
       cx="0"
       cy="0"
       r="1"
       gradientUnits="userSpaceOnUse"
       gradientTransform="matrix(94.37117,-92.28331,-92.28331,-94.37117,133.13734,398.49393)"
       spreadMethod="pad"
       id="radialGradient306">
      <stop
         style="stop-opacity:1;stop-color:#fcb138"
         offset="0"
         id="stop298" />
      <stop
         style="stop-opacity:1;stop-color:#fcb138"
         offset="0.17751066"
         id="stop300" />
      <stop
         style="stop-opacity:1;stop-color:#e30613"
         offset="0.552988"
         id="stop302" />
      <stop
         style="stop-opacity:1;stop-color:#cb1819"
         offset="1"
         id="stop304" />
    </radialGradient>
    <radialGradient
       fx="0"
       fy="0"
       cx="0"
       cy="0"
       r="1"
       gradientUnits="userSpaceOnUse"
       gradientTransform="matrix(94.37117,-92.28331,-92.28331,-94.37117,136.86815,392.09827)"
       spreadMethod="pad"
       id="radialGradient330">
      <stop
         style="stop-opacity:1;stop-color:#fcb138"
         offset="0"
         id="stop322" />
      <stop
         style="stop-opacity:1;stop-color:#fcb138"
         offset="0.17751066"
         id="stop324" />
      <stop
         style="stop-opacity:1;stop-color:#e30613"
         offset="0.552988"
         id="stop326" />
      <stop
         style="stop-opacity:1;stop-color:#cb1819"
         offset="1"
         id="stop328" />
    </radialGradient>
    <clipPath
       clipPathUnits="userSpaceOnUse"
       id="clipPath340">
      <path
         d="M 0,500 H 500 V 0 H 0 Z"
         id="path338" />
    </clipPath>
    <radialGradient
       fx="0"
       fy="0"
       cx="0"
       cy="0"
       r="1"
       gradientUnits="userSpaceOnUse"
       gradientTransform="matrix(-19.256033,-21.170467,-21.170467,19.256033,285.01547,295.49152)"
       spreadMethod="pad"
       id="radialGradient366">
      <stop
         style="stop-opacity:1;stop-color:#fcb138"
         offset="0"
         id="stop358" />
      <stop
         style="stop-opacity:1;stop-color:#fcb138"
         offset="0.17751066"
         id="stop360" />
      <stop
         style="stop-opacity:1;stop-color:#e30613"
         offset="0.552988"
         id="stop362" />
      <stop
         style="stop-opacity:1;stop-color:#cb1819"
         offset="1"
         id="stop364" />
    </radialGradient>
    <clipPath
       clipPathUnits="userSpaceOnUse"
       id="clipPath376">
      <path
         d="m 271.402,291.321 c 0,0 -1.164,-9.253 7.329,-8.721 v 0 c 5.332,0.334 5.854,9.54 5.854,9.54 v 0 c -4.337,-2.362 -8.739,-2.345 -13.183,-0.819"
         id="path374" />
    </clipPath>
    <clipPath
       clipPathUnits="userSpaceOnUse"
       id="clipPath388">
      <path
         d="M 0,500 H 500 V 0 H 0 Z"
         id="path386" />
    </clipPath>
    <clipPath
       clipPathUnits="userSpaceOnUse"
       id="clipPath440">
      <path
         d="m 261.666,269.977 h 40.747 v -47.85 h -40.747 z"
         id="path438" />
    </clipPath>
    <clipPath
       clipPathUnits="userSpaceOnUse"
       id="clipPath456">
      <path
         d="m 226.92,274.223 h 6.006 v -34.976 h -6.006 z"
         id="path454" />
    </clipPath>
  </defs>
  <sodipodi:namedview
     id="namedview4"
     pagecolor="#ffffff"
     bordercolor="#000000"
     borderopacity="0.25"
     inkscape:showpageshadow="2"
     inkscape:pageopacity="0.0"
     inkscape:pagecheckerboard="0"
     inkscape:deskcolor="#d1d1d1" />
  <g
     id="g8"
     inkscape:groupmode="layer"
     inkscape:label="5612428"
     transform="matrix(1.3333333,0,0,-1.3333333,0,666.66667)">
    <g
       id="g12">
      <g
         id="g14"
         clip-path="url(#clipPath18)">
        <g
           id="g20">
          <g
             id="g22" />
          <g
             id="g34">
            <g
               clip-path="url(#clipPath26)"
               opacity="0.350006"
               id="g32">
              <g
                 transform="translate(352.915,196.1699)"
                 id="g30">
                <path
                   d="m 0,0 c 0,-2.996 -42.707,-5.425 -95.389,-5.425 -52.681,0 -95.388,2.429 -95.388,5.425 0,2.996 42.707,5.425 95.388,5.425 C -42.707,5.425 0,2.996 0,0"
                   style="fill:#cdcdcd;fill-opacity:1;fill-rule:evenodd;stroke:none"
                   id="path28" />
              </g>
            </g>
          </g>
        </g>
      </g>
    </g>
    <g
       id="g44">
      <g
         id="g46">
        <g
           id="g52">
          <g
             id="g54">
            <path
               d="m 220.834,374.33 c 5.796,-12.502 15.925,-19.105 15.925,-19.105 v 0 c 0,0 -19.746,8.016 -30.974,14.732 v 0 c -12.358,7.111 -24.251,33.899 -52.714,25.255 v 0 c 27.644,4.463 23.072,-28.787 35.577,-41.048 v 0 c 6.985,-6.785 10.704,-9.305 9.086,-8.471 v 0 c -1.631,0.894 -11.475,8.249 -23.143,6.635 v 0 c -10.162,-1.371 -25.614,-3.944 -33.626,6.113 v 0 c 0,0 3.775,-10.448 15.981,-15.721 v 0 c 12.204,-5.273 19.329,-4.999 24.292,-8.573 v 0 c 5.003,-3.6 6.155,-5.118 6.155,-5.118 v 0 c -16.818,7.185 -30.654,2.322 -38.854,-2.541 v 0 c -5.213,-3.091 -8.149,-6.183 -8.124,-6.178 v 0 c 25.309,6.466 38.569,-15.827 50.29,-31.557 v 0 c -6.156,1.648 -10.736,6.119 -14.974,11.095 v 0 c 0.887,-5.544 4.977,-11.894 11.727,-18.941 v 0 c -10.576,6.273 -20.593,13.536 -29.48,23.293 v 0 c 0,0 10.644,-22.521 21.214,-34.997 v 0 c 10.506,-12.484 39.003,-48.88 74.846,-36.034 v 0 c 35.819,12.811 56.781,89.544 56.781,89.544 v 0 c -0.721,10.036 -6.858,18.48 -16.405,25.528 v 0 c -9.509,7.023 -10.171,7.945 -30.977,18.362 v 0 c -20.828,10.382 -33.657,17.707 -39.79,26.492 v 0 c -6.132,8.786 -5.345,13.529 -5.294,13.694 v 0 c 0.022,0.074 0.026,0.11 0.015,0.11 v 0 c -0.218,10e-4 -6.28,-13.705 2.466,-32.569"
               style="fill:url(#radialGradient64);stroke:none"
               id="path66" />
          </g>
        </g>
      </g>
    </g>
    <g
       id="g68">
      <g
         id="g70"
         clip-path="url(#clipPath74)">
        <g
           id="g76">
          <g
             id="g78" />
          <g
             id="g114">
            <g
               clip-path="url(#clipPath82)"
               opacity="0.679993"
               id="g112">
              <g
                 id="g110">
                <g
                   id="g108">
                  <g
                     id="g106">
                    <g
                       id="g104">
                      <path
                         d="m 277.174,356.241 c -27.04,8.069 -54.029,28.172 -52.914,27.836 1.823,-0.446 10.344,-27.191 38.024,-36.102 0,0 -17.461,-2.895 -40.865,5.337 -23.428,8.198 -36.221,31.018 -36.012,29.508 0.184,-1.546 0.733,-18.487 15.712,-32.794 14.917,-14.317 35.058,-21.916 35.058,-21.916 0,0 -7.103,-0.079 -14.766,3.063 -7.649,3.079 -10.267,5.327 -8.548,3.899 11.533,-9.236 6.053,-14.517 27.03,-21.79 0,0 -9.257,-3.668 -19.836,2.765 -10.556,6.469 -12.103,20.037 -27.608,25.232 -15.49,5.132 -22.214,3.218 -20.39,3.35 1.848,0.168 11.497,-0.374 22.613,-13.694 5.325,-6.344 8.457,-23.932 8.265,-23.802 -1.446,1.086 -7.782,14.112 -20.515,18.111 -12.756,3.964 -24.581,-2.173 -23.604,-1.888 16.869,4.665 30.87,-21.078 35.119,-30.165 6.266,-13.293 26.083,-21.041 26.619,-21.405 0.499,-0.338 -15.924,1.271 -27.14,10.976 2.147,-7.978 8.314,-16.629 13.051,-20.207 -1.792,0.162 -33.009,25.683 -33.009,25.683 0,0 5.541,-27.741 43.079,-46.657 37.514,-18.952 63.829,-8.275 84.351,30.262 14.401,27.114 22.967,70.386 -23.714,84.398"
                         style="fill:url(#linearGradient100);fill-rule:evenodd;stroke:none"
                         id="path102" />
                    </g>
                  </g>
                </g>
              </g>
            </g>
          </g>
        </g>
        <g
           id="g116"
           transform="translate(328.8135,258.8511)">
          <path
             d="m 0,0 c 0,0 -0.031,-4.319 0.796,-6.04 0.829,-1.721 3.06,-2.901 3.953,-2.327 0.893,0.574 3.992,5.803 3.223,6.615 C 7.203,-0.939 0,0 0,0"
             style="fill:#48241d;fill-opacity:1;fill-rule:evenodd;stroke:none"
             id="path118" />
        </g>
        <g
           id="g120"
           transform="translate(382.3125,333.8516)">
          <path
             d="m 0,0 c -0.588,0.287 -9.726,-17.222 -14.282,-23.714 -1.981,-2.821 -5.239,-2.824 -7.149,-1.014 -1.312,1.247 -1.944,3.311 -1.198,5.825 2.128,7.17 11.301,23.445 10.741,23.782 -0.562,0.337 -10.834,-15.765 -13.013,-23.108 -1.057,-3.56 -0.022,-6.454 1.84,-8.219 0.148,-0.14 0.304,-0.269 0.462,-0.395 L -47.4,-72.384 c -0.093,0.05 -0.197,0.105 -0.28,0.149 -0.163,0.088 -0.357,0.106 -0.534,0.051 -0.178,-0.054 -0.326,-0.177 -0.412,-0.342 -1.756,-3.327 -9.965,-18.888 -9.965,-18.888 -1.069,-1.837 1.837,-3.411 2.839,-2.125 0,0 8.907,15.682 10.81,19.033 0.094,0.164 0.117,0.36 0.063,0.541 -0.052,0.181 -0.176,0.334 -0.344,0.423 -0.088,0.047 -0.197,0.105 -0.298,0.158 l 24.58,45.558 c 2.782,-1.176 6.28,-0.552 8.598,2.75 C -7.722,-18.492 0.588,-0.287 0,0"
             style="fill:#000000;fill-opacity:1;fill-rule:evenodd;stroke:none"
             id="path122" />
        </g>
        <g
           id="g124"
           transform="translate(330.9062,260.6807)">
          <path
             d="M 0,0 C 0,0 7.081,-2.187 6.508,-3.195 5.933,-4.203 2.322,-3.256 2.322,-3.256 l -2.683,0.304 z"
             style="fill:#48241d;fill-opacity:1;fill-rule:evenodd;stroke:none"
             id="path126" />
        </g>
        <g
           id="g128"
           transform="translate(192.1416,253.8799)">
          <path
             d="m 0,0 c 0,0 -5.633,-2.982 -6.147,-5.807 -0.285,-1.559 2.933,-5.031 4.23,-4.992 1.298,0.04 1.67,0.61 1.917,1.069 0.247,0.459 1.956,7.063 1.956,7.063 z"
             style="fill:#48241d;fill-opacity:1;fill-rule:evenodd;stroke:none"
             id="path130" />
        </g>
        <g
           id="g132"
           transform="translate(299.1709,287.5181)">
          <path
             d="m 0,0 c 0,0 12.211,-2.78 21.558,-12.813 9.348,-10.032 12.037,-17.038 12.037,-17.038 l -3.157,-1.727 c 0,0 -5.721,9.209 -12.903,14.453 -7.182,5.245 -19.016,9.943 -19.016,9.943 C -4.687,-5.298 -3.115,0.918 0,0"
             style="fill:#48241d;fill-opacity:1;fill-rule:evenodd;stroke:none"
             id="path134" />
        </g>
      </g>
    </g>
    <g
       id="g136">
      <g
         id="g138">
        <g
           id="g144">
          <g
             id="g146">
            <path
               d="m 239.569,340.621 c -20.686,-6.367 -48.328,-29.346 -23.401,-61.153 v 0 c 11.857,-15.13 5.322,-20.556 4.443,-37.331 v 0 c -0.881,-16.776 5.487,-26.065 20.877,-30.481 v 0 c 15.391,-4.418 22.248,-5.696 30.22,-3.301 v 0 c 4.37,1.313 20.799,18.377 25.251,63.744 v 0 c 4.455,45.367 9.96,59.664 8.02,62.175 v 0 c -6.428,8.325 -18.361,11.781 -32.147,11.781 v 0 c -10.547,10e-4 -22.177,-2.021 -33.263,-5.434"
               style="fill:url(#linearGradient154);stroke:none"
               id="path156" />
          </g>
        </g>
      </g>
    </g>
    <g
       id="g158">
      <g
         id="g160"
         clip-path="url(#clipPath164)">
        <g
           id="g166">
          <g
             id="g168" />
          <g
             id="g180">
            <g
               clip-path="url(#clipPath172)"
               opacity="0.419998"
               id="g178">
              <g
                 transform="translate(261.9336,204.2373)"
                 id="g176">
                <path
                   d="m 0,0 c -0.172,-0.513 -4.791,-0.393 -5.081,-0.337 -2.447,0.474 -4.751,1.306 -7.002,2.367 -6.793,3.204 -12.391,7.367 -16.063,13.95 -2.73,4.895 -4.806,10.175 -5.974,15.663 -1.277,6 -0.326,11.759 0.114,17.818 0.807,11.141 -2.768,21.901 -9.989,30.46 -2.061,2.442 -4.723,4.374 -6.555,6.955 -1.977,2.786 -3.193,5.926 -3.947,9.244 -0.287,1.266 -0.505,2.563 -0.662,3.852 -0.017,0.146 0.89,12.653 0.819,12.614 -0.423,-0.235 -3.939,-11.109 -4.013,-11.509 -0.455,-2.493 -1.717,-12.407 13.674,-41.091 2.941,-5.48 -1.346,-11.562 -3.551,-17.007 -1.514,-3.739 -2.57,-7.708 -2.595,-11.77 C -50.959,9.234 -20.256,-8.829 0,0"
                   style="fill:#4e4e4e;fill-opacity:1;fill-rule:evenodd;stroke:none"
                   id="path174" />
              </g>
            </g>
          </g>
        </g>
      </g>
    </g>
    <g
       id="g182">
      <g
         id="g184"
         clip-path="url(#clipPath188)">
        <g
           id="g190">
          <g
             id="g192" />
          <g
             id="g204">
            <g
               clip-path="url(#clipPath196)"
               opacity="0.149994"
               id="g202">
              <g
                 transform="translate(218.5171,325.6055)"
                 id="g200">
                <path
                   d="m 0,0 c -1.484,-1.072 -2.704,-3.032 -3.784,-4.426 -4.313,-5.568 -7.51,-13.717 -4.158,-20.217 2.092,-4.058 3.425,-5.962 6.301,-9.518 0.78,-0.964 5.402,-7.778 7.124,-7.444 4.097,0.795 -3.44,9.013 -5,12 -5.429,10.39 -1.899,17.571 1.627,21.607 C 4.933,-4.766 13.052,4.313 24.525,11.893 26.631,13.285 21.052,15.016 7.268,6.248 5.002,4.807 1.406,2.017 0,0"
                   style="fill:#772c17;fill-opacity:1;fill-rule:evenodd;stroke:none"
                   id="path198" />
              </g>
            </g>
          </g>
        </g>
        <g
           id="g206"
           transform="translate(217.9766,203.2227)">
          <path
             d="m 0,0 c 2.603,7.14 10.451,22.232 13.451,25.654 1.857,2.868 7.059,0.334 6.108,-1.764 0,0 -6.574,-8.879 -11.329,-16.972 C 5.342,2.001 3.85,-1.333 3.124,-3.192 3.374,-4.17 3.488,-5.175 3.28,-6.017 2.998,-7.156 -6.9,-10.214 -10.028,-8.072 c -1.644,1.126 -1.033,2.276 0.608,3.424 2.259,1.58 6.467,3.154 9.42,4.648"
             style="fill:#48241d;fill-opacity:1;fill-rule:evenodd;stroke:none"
             id="path208" />
        </g>
        <g
           id="g210"
           transform="translate(294.3857,200.0303)">
          <path
             d="m 0,0 c -0.726,1.859 -2.219,5.193 -5.106,10.11 -4.755,8.093 -11.329,16.972 -11.329,16.972 -0.951,2.099 4.25,4.633 6.108,1.765 C -7.328,25.425 0.521,10.332 3.123,3.192 6.076,1.698 10.285,0.124 12.544,-1.456 14.185,-2.604 14.796,-3.754 13.151,-4.88 10.023,-7.021 0.126,-3.964 -0.156,-2.824 -0.364,-1.982 -0.25,-0.978 0,0"
             style="fill:#48241d;fill-opacity:1;fill-rule:evenodd;stroke:none"
             id="path212" />
        </g>
        <g
           id="g214"
           transform="translate(262.2178,341.6499)">
          <path
             d="m 0,0 c -17.895,-4.951 -39.8,-19.482 -41.47,-36.46 -1.67,-16.978 12.4,-13.649 14.905,-36.472 2.505,-22.822 -9.185,-25.884 5.845,-46.201 15.03,-20.318 30.616,-18.091 46.201,-5.01 15.586,13.081 26.442,36.739 26.72,67.354 0.278,30.616 -0.68,46.412 -15.71,53.648 C 21.461,4.096 11.658,3.226 0,0"
             style="fill:#712a16;fill-opacity:1;fill-rule:evenodd;stroke:none"
             id="path216" />
        </g>
        <g
           id="g218"
           transform="translate(265.4766,333.9111)">
          <path
             d="m 0,0 c -15.275,-3 -38.772,-15.447 -36.751,-28.518 1.194,-7.723 4.91,-12.171 8.139,-21.499 3.229,-9.327 3.033,-14.583 2.023,-25.145 -1.011,-10.561 -3.309,-16.061 0.709,-24.442 4.018,-8.379 14.389,-18.595 29.277,-17.344 12.944,1.087 24.193,11.183 28.641,17.64 4.45,6.458 11.378,25.506 12.526,37.331 1.149,11.825 1.04,30.091 -0.418,42.292 C 41.238,4.653 9.109,1.789 0,0"
             style="fill:#8a331b;fill-opacity:1;fill-rule:evenodd;stroke:none"
             id="path220" />
        </g>
        <g
           id="g222"
           transform="translate(265.9541,300.9336)">
          <path
             d="m 0,0 c 0,-4.044 -3.278,-7.322 -7.322,-7.322 -4.044,0 -7.323,3.278 -7.323,7.322 0,4.044 3.279,7.322 7.323,7.322 C -3.278,7.322 0,4.044 0,0"
             style="fill:#ffffff;fill-opacity:1;fill-rule:evenodd;stroke:none"
             id="path224" />
        </g>
        <g
           id="g226"
           transform="translate(300.2637,301.6426)">
          <path
             d="m 0,0 c 0,-4.044 -3.278,-7.322 -7.322,-7.322 -4.044,0 -7.323,3.278 -7.323,7.322 0,4.043 3.279,7.322 7.323,7.322 C -3.278,7.322 0,4.043 0,0"
             style="fill:#ffffff;fill-opacity:1;fill-rule:evenodd;stroke:none"
             id="path228" />
        </g>
        <g
           id="g230">
          <g
             id="g232" />
          <g
             id="g244">
            <g
               clip-path="url(#clipPath236)"
               opacity="0.130005"
               id="g242">
              <g
                 transform="translate(235.9663,314.6982)"
                 id="g240">
                <path
                   d="m 0,0 c 0.69,0.978 1.383,1.954 2.144,2.875 2.217,2.683 5.24,5.439 8.535,6.078 1.47,0.286 3.562,-0.09 4.381,-1.456 C 16.424,5.221 13.077,3.383 11.584,2.51 11.187,2.278 10.792,2.043 10.407,1.787 9.86,1.422 9.338,1.012 8.856,0.547 7.947,-0.331 7.011,-1.487 6.679,-2.757 6.375,-3.917 6.48,-5.361 5.776,-6.394 4.216,-8.684 0.734,-8.799 -1.386,-8.223 -2.319,-7.97 -4.164,-5.898 0,0"
                   style="fill:#d14d28;fill-opacity:1;fill-rule:evenodd;stroke:none"
                   id="path238" />
              </g>
            </g>
          </g>
        </g>
        <g
           id="g246"
           transform="translate(223.8198,281.2837)">
          <path
             d="m 0,0 c 0,0 -11.794,-3.362 -21.142,-13.394 -9.348,-10.032 -12.27,-15.154 -12.27,-15.154 l 2.974,-3.03 c 0,0 7.05,9.541 13.9,15.782 6.575,5.988 18.02,8.614 18.02,8.614 C 4.688,-5.299 3.117,0.918 0,0"
             style="fill:#48241d;fill-opacity:1;fill-rule:evenodd;stroke:none"
             id="path248" />
        </g>
        <g
           id="g250"
           transform="translate(333.377,250.3374)">
          <path
             d="M 0,0 C 0,0 -3.08,1.368 -2.632,2.492 -2.186,3.615 -0.87,6.813 -0.148,7.087 0.575,7.361 3.57,6.787 3.327,5.381 2.568,0.983 0.754,-0.077 0,0"
             style="fill:#48241d;fill-opacity:1;fill-rule:evenodd;stroke:none"
             id="path252" />
        </g>
        <g
           id="g254"
           transform="translate(199.4634,242.0273)">
          <path
             d="m 0,0 -41.192,40.823 c 0,0 5.046,3.325 0.846,12.369 -4.201,9.043 -20.938,26.364 -20.938,26.364 l -8.637,-7.699 -11.467,-10.324 c 0,0 17.889,-17.69 24.735,-21.522 9.576,-5.361 13.528,-0.764 13.528,-0.764 L -1.416,-1.741 C -0.352,-2.377 0.583,-1.395 0,0 m -72.571,62.83 c -0.516,0.499 -1.339,0.484 -1.838,-0.032 0,-0.001 -10e-4,-0.001 -10e-4,-0.001 -0.499,-0.517 -0.485,-1.339 0.032,-1.839 2.848,-2.75 11.392,-11 14.24,-13.751 0.516,-0.499 1.34,-0.484 1.838,0.032 10e-4,0 10e-4,0.001 10e-4,0.001 0.499,0.517 0.485,1.34 -0.032,1.839 -2.848,2.75 -11.392,11.001 -14.24,13.751 m 5.108,4.94 c -0.516,0.498 -1.339,0.484 -1.838,-0.033 -0.001,0 -0.001,-10e-4 -0.001,-10e-4 -0.499,-0.516 -0.485,-1.339 0.032,-1.838 2.848,-2.75 11.392,-11.001 14.24,-13.752 0.516,-0.498 1.34,-0.484 1.838,0.033 l 10e-4,10e-4 c 0.499,0.516 0.484,1.339 -0.032,1.838 -2.848,2.75 -11.392,11.001 -14.24,13.752 m 5.548,5.181 c -0.239,0.256 -0.569,0.405 -0.918,0.418 -0.349,0.011 -0.689,-0.116 -0.944,-0.354 h -10e-4 c -0.255,-0.239 -0.405,-0.569 -0.417,-0.918 -0.012,-0.349 0.115,-0.689 0.354,-0.945 2.713,-2.904 10.797,-11.56 13.509,-14.465 0.239,-0.255 0.569,-0.405 0.918,-0.417 0.35,-0.012 0.689,0.115 0.945,0.354 v 0 c 0.255,0.238 0.406,0.568 0.417,0.918 0.012,0.349 -0.115,0.688 -0.353,0.944 -2.713,2.905 -10.797,11.56 -13.51,14.465"
             style="fill:#000000;fill-opacity:1;fill-rule:evenodd;stroke:none"
             id="path256" />
        </g>
      </g>
    </g>
    <g
       id="g258">
      <g
         id="g260">
        <g
           id="g266">
          <g
             id="g268">
            <path
               d="m 203.205,379.138 c 1.545,-5.327 9.426,-8.759 17.406,-10.792 v 0 c -4.695,4.798 -7.428,11.742 -9.575,16.928 v 0 c -2.871,6.937 -9.837,7.591 -16.542,8.031 v 0 c 3.922,-2.594 6.581,-6.831 8.711,-14.167"
               style="fill:url(#radialGradient282);stroke:none"
               id="path284" />
          </g>
        </g>
      </g>
    </g>
    <g
       id="g286">
      <g
         id="g288">
        <g
           id="g294">
          <g
             id="g296">
            <path
               d="m 162.138,371.102 c 13.673,-7.54 6.984,-13.969 23.746,-17.491 v 0 c -6.195,8.517 -4.714,10.738 -8.109,13.907 v 0 c -3.27,3.051 -8.037,3.924 -11.777,3.924 v 0 c -1.509,0 -2.851,-0.142 -3.86,-0.34"
               style="fill:url(#radialGradient306);stroke:none"
               id="path308" />
          </g>
        </g>
      </g>
    </g>
    <g
       id="g310">
      <g
         id="g312">
        <g
           id="g318">
          <g
             id="g320">
            <path
               d="m 148.168,331.37 c 5.283,2.728 9.222,2.578 12.715,2.427 v 0 c 2.962,-0.127 5.603,-0.255 8.472,1.372 v 0 c -4.813,0.925 -7.943,2.314 -10.942,2.315 v 0 c -3.019,0 -5.906,-1.408 -10.245,-6.114"
               style="fill:url(#radialGradient330);stroke:none"
               id="path332" />
          </g>
        </g>
      </g>
    </g>
    <g
       id="g334">
      <g
         id="g336"
         clip-path="url(#clipPath340)">
        <g
           id="g342"
           transform="translate(284.585,292.1401)">
          <path
             d="m 0,0 c -4.337,-2.361 -8.738,-2.346 -13.183,-0.819 0,0 -1.165,-9.253 7.329,-8.721 C -0.521,-9.206 0,0 0,0"
             style="fill:#34140a;fill-opacity:1;fill-rule:evenodd;stroke:none"
             id="path344" />
        </g>
      </g>
    </g>
    <g
       id="g346">
      <g
         id="g348">
        <g
           id="g354">
          <g
             id="g356">
            <path
               d="m 278.731,282.6 c 0.885,0.055 1.637,0.355 2.277,0.817 v 0 c -0.355,0.731 -1.021,1.7 -2.176,2.867 v 0 c -1.894,1.913 -5.413,2.524 -7.423,2.719 v 0 c 0.27,-2.703 1.617,-6.76 7.322,-6.403"
               style="fill:url(#radialGradient366);stroke:none"
               id="path368" />
          </g>
        </g>
      </g>
    </g>
    <g
       id="g370">
      <g
         id="g372"
         clip-path="url(#clipPath376)">
        <g
           id="g378"
           transform="translate(282.2549,292.5405)">
          <path
             d="m 0,0 0.162,-3.845 c 0,0 -1.047,-0.843 -6.229,-0.819 -5.184,0.023 -6.765,0.859 -6.765,0.859 C -12.051,1.958 -5.894,0.808 0,0"
             style="fill:#ffe3e1;fill-opacity:1;fill-rule:evenodd;stroke:none"
             id="path380" />
        </g>
      </g>
    </g>
    <g
       id="g382">
      <g
         id="g384"
         clip-path="url(#clipPath388)">
        <g
           id="g390"
           transform="translate(258.4824,305.9814)">
          <path
             d="M 0,0 C 1.923,0.082 3.551,-1.437 3.634,-3.39 3.716,-5.342 2.222,-6.994 0.299,-7.075 -1.624,-7.156 -3.252,-5.637 -3.335,-3.685 -3.417,-1.732 -1.923,-0.082 0,0"
             style="fill:#000000;fill-opacity:1;fill-rule:evenodd;stroke:none"
             id="path392" />
        </g>
        <g
           id="g394"
           transform="translate(257.9258,304.5937)">
          <path
             d="M 0,0 C 0.864,0.037 1.596,-0.646 1.633,-1.524 1.671,-2.402 0.999,-3.145 0.134,-3.181 -0.73,-3.218 -1.463,-2.535 -1.5,-1.657 -1.537,-0.779 -0.865,-0.037 0,0"
             style="fill:#ffffff;fill-opacity:1;fill-rule:evenodd;stroke:none"
             id="path396" />
        </g>
        <g
           id="g398"
           transform="translate(292.3164,306.1802)">
          <path
             d="m 0,0 c -1.923,-0.082 -3.417,-1.732 -3.335,-3.685 0.083,-1.953 1.711,-3.471 3.634,-3.39 1.923,0.081 3.417,1.732 3.335,3.685 C 3.551,-1.437 1.923,0.081 0,0"
             style="fill:#000000;fill-opacity:1;fill-rule:evenodd;stroke:none"
             id="path400" />
        </g>
        <g
           id="g402"
           transform="translate(291.7461,305.1812)">
          <path
             d="m 0,0 c -0.865,-0.037 -1.536,-0.779 -1.499,-1.657 0.037,-0.878 0.769,-1.561 1.634,-1.524 0.864,0.036 1.536,0.779 1.499,1.657 C 1.597,-0.646 0.864,0.037 0,0"
             style="fill:#ffffff;fill-opacity:1;fill-rule:evenodd;stroke:none"
             id="path404" />
        </g>
        <g
           id="g406"
           transform="translate(250.2095,310.7812)">
          <path
             d="m 0,0 16.772,-1.088 c 2.176,-0.22 2.64,3.769 0.534,3.9 L 0.401,4.243 C -1.96,4.304 -2.946,0.404 0,0"
             style="fill:#311908;fill-opacity:1;fill-rule:evenodd;stroke:none"
             id="path408" />
        </g>
        <g
           id="g410"
           transform="translate(300.1729,313.3462)">
          <path
             d="m 0,0 -15.575,-3.517 c -2.013,-0.538 -2.888,3.544 -0.932,3.979 L -0.846,4.354 C 1.358,4.753 2.713,0.839 0,0"
             style="fill:#311908;fill-opacity:1;fill-rule:evenodd;stroke:none"
             id="path412" />
        </g>
        <g
           id="g414"
           transform="translate(305.6895,275.9692)">
          <path
             d="m 0,0 c -2.734,-1.213 -7.038,-2.389 -12.438,-3.292 -1.722,-0.289 -3.551,-0.548 -5.478,-0.777 -2.317,-0.275 -4.771,-0.495 -7.342,-0.66 -1.595,-0.103 -3.233,-0.186 -4.909,-0.245 -1.208,-0.043 -2.437,-0.076 -3.684,-0.097 -2.788,-0.045 -5.665,-0.015 -8.605,0.113 -5.925,0.257 -12.107,0.9 -18.342,2.148 -0.124,0.029 -0.248,-0.05 -0.276,-0.174 -0.028,-0.124 0.05,-0.248 0.175,-0.276 6.215,-1.558 12.402,-2.549 18.357,-3.047 2.968,-0.248 5.877,-0.373 8.699,-0.391 1.263,-0.009 2.508,0.007 3.735,0.047 1.697,0.055 3.357,0.152 4.97,0.285 2.6,0.216 5.08,0.521 7.416,0.885 1.942,0.301 3.782,0.648 5.506,1.024 5.429,1.187 9.714,2.657 12.414,4.04 0.116,0.055 0.165,0.193 0.11,0.308 C 0.252,0.006 0.113,0.055 0,0"
             style="fill:#662614;fill-opacity:1;fill-rule:evenodd;stroke:none"
             id="path416" />
        </g>
        <g
           id="g418"
           transform="translate(304.1211,261.3091)">
          <path
             d="m 0,0 c -2.735,-1.213 -7.038,-2.389 -12.438,-3.293 -1.72,-0.288 -3.551,-0.547 -5.476,-0.776 -2.317,-0.275 -4.773,-0.495 -7.344,-0.66 -1.595,-0.103 -3.231,-0.186 -4.907,-0.245 -1.21,-0.043 -2.439,-0.077 -3.686,-0.097 -2.788,-0.045 -5.665,-0.015 -8.605,0.113 -5.925,0.257 -12.106,0.9 -18.341,2.148 -0.125,0.028 -0.248,-0.05 -0.277,-0.174 -0.028,-0.125 0.051,-0.248 0.175,-0.276 6.216,-1.558 12.402,-2.55 18.358,-3.047 2.969,-0.248 5.876,-0.373 8.698,-0.392 1.264,-0.008 2.508,0.008 3.735,0.048 1.699,0.055 3.357,0.152 4.97,0.285 2.6,0.216 5.08,0.521 7.416,0.884 1.943,0.302 3.782,0.648 5.508,1.025 5.427,1.186 9.712,2.656 12.412,4.04 0.116,0.055 0.165,0.193 0.11,0.308 C 0.252,0.006 0.115,0.055 0,0"
             style="fill:#662614;fill-opacity:1;fill-rule:evenodd;stroke:none"
             id="path420" />
        </g>
        <g
           id="g422"
           transform="translate(302.083,244.6885)">
          <path
             d="m 0,0 c -2.734,-1.213 -7.037,-2.389 -12.439,-3.293 -1.72,-0.287 -3.549,-0.547 -5.476,-0.776 -2.317,-0.275 -4.773,-0.494 -7.342,-0.66 -1.595,-0.103 -3.233,-0.185 -4.909,-0.245 -1.209,-0.043 -2.438,-0.077 -3.685,-0.096 -2.79,-0.046 -5.664,-0.016 -8.605,0.112 -5.925,0.257 -12.106,0.9 -18.341,2.148 -0.125,0.029 -0.249,-0.049 -0.277,-0.173 -0.028,-0.125 0.051,-0.249 0.175,-0.277 6.216,-1.557 12.402,-2.55 18.357,-3.047 2.969,-0.248 5.877,-0.373 8.7,-0.391 1.262,-0.008 2.508,0.008 3.733,0.048 1.699,0.054 3.358,0.151 4.972,0.285 2.6,0.215 5.08,0.52 7.415,0.884 1.942,0.301 3.783,0.648 5.507,1.025 5.429,1.185 9.714,2.655 12.414,4.039 0.113,0.056 0.163,0.193 0.109,0.309 C 0.253,0.007 0.114,0.056 0,0"
             style="fill:#662614;fill-opacity:1;fill-rule:evenodd;stroke:none"
             id="path424" />
        </g>
        <g
           id="g426"
           transform="translate(194.043,252.5127)">
          <path
             d="m 0,0 c -0.336,-0.267 -3.936,-6.14 -5.529,-4.632 -1.361,1.29 -0.318,2.369 -0.318,2.369 0.604,0.912 2.069,2.339 3.416,3.697 0,0 2.766,-1.167 2.431,-1.434"
             style="fill:#48241d;fill-opacity:1;fill-rule:evenodd;stroke:none"
             id="path428" />
        </g>
        <g
           id="g430"
           transform="translate(185.9766,247.8672)">
          <path
             d="M 0,0 C 0,0 1.529,2.277 2.395,1.641 3.259,1.004 6.076,-1.021 6.223,-1.837 6.37,-2.653 5.364,-5.242 4.249,-4.786 0.76,-3.359 -0.141,-0.802 0,0"
             style="fill:#48241d;fill-opacity:1;fill-rule:evenodd;stroke:none"
             id="path432" />
        </g>
        <g
           id="g434">
          <g
             id="g436" />
          <g
             id="g448">
            <g
               clip-path="url(#clipPath440)"
               opacity="0.130005"
               id="g446">
              <g
                 transform="translate(302.2871,267.4951)"
                 id="g444">
                <path
                   d="m 0,0 c 0.169,0 0.118,-0.767 0.118,-0.824 0,-0.83 -0.052,-1.661 -0.118,-2.489 -0.322,-4.066 -1.017,-8.118 -2.005,-12.125 -0.641,-2.595 -1.411,-5.164 -2.409,-7.699 -2.914,-7.39 -8.202,-15.677 -17.405,-20.03 -4.108,-1.942 -11.092,-3.158 -15.6,-1.222 -7.512,3.227 0.11,10.001 3.432,13.127 0.883,0.831 1.757,1.666 2.568,2.535 1.151,1.234 2.159,2.536 2.964,3.908 1.519,2.589 2.715,5.755 1.886,8.58 -0.754,2.579 -3.181,5.341 -2.52,8.045 C -27.623,-2.2 -17.078,1.29 -9.717,2.138 -6.478,2.511 -0.965,3.247 0,0"
                   style="fill:#d14d28;fill-opacity:1;fill-rule:evenodd;stroke:none"
                   id="path442" />
              </g>
            </g>
          </g>
        </g>
        <g
           id="g450">
          <g
             id="g452" />
          <g
             id="g464">
            <g
               clip-path="url(#clipPath456)"
               opacity="0.470001"
               id="g462">
              <g
                 transform="translate(229.6709,258.4214)"
                 id="g460">
                <path
                   d="m 0,0 c -0.183,-4.812 -0.828,-9.633 -0.351,-14.424 0.172,-1.728 0.557,-3.571 1.831,-4.75 -1.005,3.667 -0.682,7.565 -0.047,11.315 0.634,3.749 1.573,7.462 1.783,11.258 0.21,3.797 -0.379,7.779 -2.542,10.907 -0.36,0.52 -0.779,1.028 -1.347,1.306 -0.569,0.279 -1.318,0.271 -1.774,-0.167 -0.876,-0.84 0.388,-2.01 0.733,-2.796 0.567,-1.294 0.937,-2.69 1.208,-4.073 C 0.044,5.757 0.109,2.862 0,0"
                   style="fill:#772c17;fill-opacity:1;fill-rule:evenodd;stroke:none"
                   id="path458" />
              </g>
            </g>
          </g>
        </g>
        <g
           id="g466"
           transform="translate(277.959,295.0073)">
          <path
             d="m 0,0 c 0.916,1.012 2.336,1.626 3.863,1.48 5.967,-0.571 7.134,-3.964 12.284,-6.096 6.025,-2.492 9.258,1.37 9.258,1.37 0,0 0.082,-4.769 -5.78,-7.292 -6.003,-2.584 -12.282,0.731 -16.773,3.007 -1.286,0.652 -2.211,1.387 -2.837,2.151 -0.626,-0.77 -1.556,-1.512 -2.851,-2.168 -4.491,-2.276 -10.77,-5.591 -16.773,-3.007 -5.863,2.523 -5.781,7.292 -5.781,7.292 0,0 3.234,-3.862 9.258,-1.37 5.151,2.132 6.318,5.525 12.284,6.096 C -2.329,1.608 -0.917,1.001 0,0"
             style="fill:#311908;fill-opacity:1;fill-rule:nonzero;stroke:none"
             id="path468" />
        </g>
      </g>
    </g>
  </g>
</svg>
